<?xml version="1.0" encoding="UTF-8"?>
<svg xmlns="http://www.w3.org/2000/svg" viewBox="0 0 512 512" width="512" height="512">
<path d="M0.13 0.13C49.25 0.11 98.38 0.1 147.51 0.08C145.56 2.18 141.43 2.39 139.31 5.51C135.24 11.49 134.27 19.6 139.22 25.53C141.81 28.65 147.88 33.21 147.82 37.5C142.87 42.43 137.91 47.35 132.96 52.28C119.45 65.7 105.95 79.13 92.45 92.55C78.8 106.06 65.15 119.57 51.5 133.08C46.62 138.04 41.73 143 36.85 147.96C28.53 145.74 26.04 135.9 15.75 135.97C14.31 135.98 12.84 135.75 11.47 136.26C9.39 137.04 7.4 138.01 5.58 139.33C2.52 141.57 2.22 145.49 0.08 147.51C0.1 98.38 0.11 49.25 0.13 0.13ZM155.06 0.08C274 0.1 392.94 0.11 511.88 0.13C511.89 119.07 511.9 238.01 511.92 356.96C510.36 355.38 509.68 351.63 507.83 349.52C503.71 344.85 497.72 340.43 492.43 337.32C464.55 320.94 429.32 317.38 397.08 321.76C389.37 322.81 381.65 322.92 374.08 324.76C372.4 325.17 370.79 324.88 369.11 325.45C369.2 317.96 372.22 310.31 373 302.75C374.54 287.73 374.3 272.76 373.02 257.75C372.51 251.71 370.93 245.35 369.23 239.58C365.53 227 361.63 214.84 354.81 203.42C335.24 170.66 301.59 146.71 264.24 140.05C246.48 136.88 228.8 136.49 210.75 137.96C204.52 138.47 198.4 140.07 192.25 140.97C190.31 141.25 188.08 142.73 186.12 142.08C186.18 139.09 187.02 135.66 187.81 132.77C188.85 128.91 189.71 119.99 190.08 115.75C192.8 84.21 192.2 48.95 175.81 21.43C172.29 15.51 167.76 8.79 162.48 4.18C160.37 2.33 156.65 1.63 155.06 0.08ZM158 71.5C159.44 72.65 158.87 75.03 158.82 76.75C158.68 81.24 159.22 85.75 159.15 90.25C159.03 97.19 158.63 103.9 157.92 110.75C157.73 112.55 158.11 114.34 157.78 116.13C156.77 121.56 155.54 127.27 154.95 132.73C154.58 136.17 152.9 149.28 151.02 151.46C144.63 153.41 137.76 153.64 131.26 155.03C118.22 157.81 104.74 159.17 91.25 159.17C86.45 159.18 74.64 160.27 70.91 158.09C76.97 151.89 83.03 145.7 89.09 139.5C97.31 131.17 105.54 122.85 113.76 114.52C122.06 106.35 130.35 98.18 138.65 90.01C145.1 83.84 151.55 77.67 158 71.5ZM0.08 155.06C1.8 156.84 2.24 160.1 4.04 162.19C7.61 166.32 12.48 169.73 16.91 172.83C46.59 193.65 91.35 193.52 126.25 189.01C131.62 188.32 136.94 186.96 142.24 186.11C140.85 195.87 138.61 205.28 137.83 215.25C137.68 217.24 137.07 219.07 137.27 221.06C137.27 227.86 137.27 234.66 137.27 241.47C137.07 243.61 137.76 245.6 137.91 247.75C138.71 259.45 141.54 270.33 144.79 281.35C155.91 319.11 186.1 348.71 221.85 363.85C234.64 369.27 248.41 371.43 262.21 373.2C274.63 374.8 288.11 375.02 300.5 372.91C305.03 373.32 312.78 372.1 317.2 370.88C319.41 370.26 322.96 368.72 325.12 369.5C324.15 380.1 321.94 390.56 321.05 401.25C318.6 431.04 320.66 464.69 336.21 490.56C339.77 496.5 344.24 503.1 349.53 507.73C351.65 509.59 355.44 510.38 356.96 511.92C238.02 511.9 119.07 511.89 0.13 511.88C0.11 392.94 0.1 274 0.08 155.06ZM260.98 172.19C255.3 178.2 249.62 184.21 243.94 190.21C234.92 199.28 225.9 208.35 216.88 217.42C202 231.92 187.13 246.43 172.25 260.94C169.45 255.56 169.35 245.37 169.17 239.25C168.7 223.27 169.94 207.89 173.91 192.72C175.19 187.85 175.69 181.83 178.55 177.65C181.84 176.15 185.7 175.87 189.14 174.84C204.97 170.1 221.53 168.5 238.25 169.06C245.5 169.3 254.27 169.28 260.98 172.19ZM292.08 184.07C295.77 185.05 299.51 188.42 302.44 190.8C310.35 197.23 316.9 204.1 322.97 212.27C325.08 215.09 328.35 219.05 328.97 222.54C324.69 224.47 316.18 233.3 313.43 237.27C300.71 250.01 287.99 262.75 275.27 275.49C262.61 288.14 249.94 300.79 237.28 313.44C232.21 318.58 227.14 323.72 222.08 328.86C212.25 325.79 197.79 311.2 191.15 303.13C189.11 300.65 186.31 294.4 184.08 292.9C189.3 289.09 196.02 283.74 199.58 278.26C212.47 265.18 225.36 252.1 238.25 239.01C251.38 226.01 264.52 213.01 277.65 200.01C280.99 198.39 291.35 187.57 292.08 184.07ZM339.95 254.94C342.11 257.68 341.88 269.23 342.24 273.1C343.69 288.61 340.99 305.02 337.1 319.79C335.93 324.24 335.42 329.35 333.38 333.51C325.71 335.46 318.03 337.41 310.36 339.36C299.26 342.51 281.89 342.95 270.25 341.98C265.08 341.55 259.57 341.79 254.66 340.13C260.43 334.26 266.19 328.38 271.95 322.5C280.17 314.05 288.38 305.61 296.6 297.16C305.12 288.78 313.64 280.41 322.16 272.03C328.09 266.33 334.02 260.63 339.95 254.94ZM438.56 353.22C432.38 359.62 426.2 366.02 420.01 372.43C412.02 380.55 404.02 388.67 396.02 396.79C387.97 404.71 379.92 412.63 371.86 420.55C365.61 426.54 359.36 432.53 353.1 438.53C352.9 431.57 352.02 424.75 352.15 417.75C352.4 403.59 354.53 389.54 356.93 375.74C357.84 370.5 358.39 365.17 360.14 360.13C379.13 355.92 398.9 352.41 418.75 352.13C425.46 352.03 431.92 352.88 438.56 353.22ZM511.92 364.08C511.9 413.34 511.89 462.61 511.88 511.88C462.72 511.89 413.57 511.9 364.42 511.92C365.78 510.2 370.45 509.44 372.65 506.4C373.83 504.78 374.55 503.23 375.19 501.37C379.84 488.01 366.79 483.97 362.93 473.52C367.96 468.38 372.98 463.24 378 458.1C391.19 444.78 404.37 431.45 417.56 418.12C431.08 404.75 444.6 391.38 458.11 378C463.05 373.17 467.98 368.33 472.91 363.5C474.66 362.81 476.96 364.72 478.34 365.85C481.81 368.69 485.68 373.11 489.85 374.81C495.85 377.25 503.53 376.3 508.06 371.23C509.95 369.12 510.25 366 511.92 364.08Z" fill="#ffffff" fill-rule="evenodd" stroke="#ffffff" stroke-width="0.25" stroke-linejoin="round"/>
<path d="M147.51 0.08C150.03 0.08 152.54 0.08 155.06 0.08C156.65 1.63 160.37 2.33 162.48 4.18C167.76 8.79 172.29 15.51 175.81 21.43C192.2 48.95 192.8 84.21 190.08 115.75C189.71 119.99 188.85 128.91 187.81 132.77C187.02 135.66 186.18 139.09 186.12 142.08C184.14 151.13 181.6 160.14 179.93 169.25C179.49 171.7 177.42 175.46 178.55 177.65C175.69 181.83 175.19 187.85 173.91 192.72C169.94 207.89 168.7 223.27 169.17 239.25C169.35 245.37 169.45 255.56 172.25 260.94C172.21 261.46 172.17 261.98 172.14 262.5C173.48 269.66 176.27 276.9 179.26 283.52C180.69 286.67 182.94 289.66 184.08 292.9C186.31 294.4 189.11 300.65 191.15 303.13C197.79 311.2 212.25 325.79 222.08 328.86C227.62 333.81 247.21 339.61 254.66 340.13C259.57 341.79 265.08 341.55 270.25 341.98C281.89 342.95 299.26 342.51 310.36 339.36C311.35 341.34 309.02 347.31 308.35 349.65C306.8 355.12 303.64 367.48 304.75 372.5C303.33 372.64 301.92 372.77 300.5 372.91C288.11 375.02 274.63 374.8 262.21 373.2C248.41 371.43 234.64 369.27 221.85 363.85C186.1 348.71 155.91 319.11 144.79 281.35C141.54 270.33 138.71 259.45 137.91 247.75C137.76 245.6 137.07 243.61 137.27 241.47C137.27 234.66 137.27 227.86 137.27 221.06C137.07 219.07 137.68 217.24 137.83 215.25C138.61 205.28 140.85 195.87 142.24 186.11C144.1 183.38 144.36 179.15 145.26 175.97C146.96 169.89 151.74 157.29 151.02 151.46C152.9 149.28 154.58 136.17 154.95 132.73C155.54 127.27 156.77 121.56 157.78 116.13C158.11 114.34 157.73 112.55 157.92 110.75C158.63 103.9 159.03 97.19 159.15 90.25C159.22 85.75 158.68 81.24 158.82 76.75C158.87 75.03 159.44 72.65 158 71.5C156.94 61.55 156.34 54.71 152.27 45.01C151.26 42.6 150.18 38.52 147.82 37.5C147.88 33.21 141.81 28.65 139.22 25.53C134.27 19.6 135.24 11.49 139.31 5.51C141.43 2.39 145.56 2.18 147.51 0.08ZM132.96 52.28C137.27 59.18 138.05 72.18 138.59 80.25C138.79 83.26 139.49 87.14 138.65 90.01C130.35 98.18 122.06 106.35 113.76 114.52C106.66 107.2 99.55 99.87 92.45 92.55C105.95 79.13 119.45 65.7 132.96 52.28ZM277.65 200.01C264.52 213.01 251.38 226.01 238.25 239.01C231.13 231.81 224 224.62 216.88 217.42C225.9 208.35 234.92 199.28 243.94 190.21C244.38 189.98 244.81 189.74 245.25 189.5C247.73 190.91 251.18 190.63 253.97 191.27C259.5 192.54 264.95 193.97 270.25 196C271.82 196.61 277.93 198.52 277.65 200.01ZM313.43 237.27C317.88 243.85 319.45 254.14 320.77 261.89C321.35 265.27 321.21 268.7 322.16 272.03C313.64 280.41 305.12 288.78 296.6 297.16C289.49 289.94 282.38 282.72 275.27 275.49C287.99 262.75 300.71 250.01 313.43 237.27ZM511.92 356.96C511.92 359.33 511.92 361.71 511.92 364.08C510.25 366 509.95 369.12 508.06 371.23C503.53 376.3 495.85 377.25 489.85 374.81C485.68 373.11 481.81 368.69 478.34 365.85C476.96 364.72 474.66 362.81 472.91 363.5C470.15 358.67 453.51 354.91 447.75 354.11C445.44 353.79 441.21 352.36 439.45 353.75C439.15 353.57 438.85 353.39 438.56 353.22C431.92 352.88 425.46 352.03 418.75 352.13C398.9 352.41 379.13 355.92 360.14 360.13C359.84 354.12 364.11 342.79 365.8 336.61C366.71 333.26 366.99 328.18 369.11 325.45C370.79 324.88 372.4 325.17 374.08 324.76C381.65 322.92 389.37 322.81 397.08 321.76C429.32 317.38 464.55 320.94 492.43 337.32C497.72 340.43 503.71 344.85 507.83 349.52C509.68 351.63 510.36 355.38 511.92 356.96ZM420.01 372.43C423.64 373.84 428.86 372.9 432.75 373.09C440.86 373.48 450.75 374.79 458.11 378C444.6 391.38 431.08 404.75 417.56 418.12C410.38 411.01 403.2 403.9 396.02 396.79C404.02 388.67 412.02 380.55 420.01 372.43Z" fill="#7894ab" fill-rule="evenodd" stroke="#7894ab" stroke-width="0.25" stroke-linejoin="round"/>
<path d="M36.85 147.96C41.61 153.02 55.46 155.99 62.18 157.18C64.97 157.67 68.07 158.74 70.91 158.09C74.64 160.27 86.45 159.18 91.25 159.17C104.74 159.17 118.22 157.81 131.26 155.03C137.76 153.64 144.63 153.41 151.02 151.46C151.74 157.29 146.96 169.89 145.26 175.97C144.36 179.15 144.1 183.38 142.24 186.11C136.94 186.96 131.62 188.32 126.25 189.01C91.35 193.52 46.59 193.65 16.91 172.83C12.48 169.73 7.61 166.32 4.04 162.19C2.24 160.1 1.8 156.84 0.08 155.06C0.08 152.54 0.08 150.02 0.08 147.51C2.22 145.49 2.52 141.57 5.58 139.33C7.4 138.01 9.39 137.04 11.47 136.26C12.84 135.75 14.31 135.98 15.75 135.97C26.04 135.9 28.53 145.74 36.85 147.96ZM369.11 325.45C366.99 328.18 366.71 333.26 365.8 336.61C364.11 342.79 359.84 354.12 360.14 360.13C358.39 365.17 357.84 370.5 356.93 375.74C354.53 389.54 352.4 403.59 352.15 417.75C352.02 424.75 352.9 431.57 353.1 438.53C352.77 447.13 355.77 456.95 358.82 464.88C359.88 467.66 360.92 471.3 362.93 473.52C366.79 483.97 379.84 488.01 375.19 501.37C374.55 503.23 373.83 504.78 372.65 506.4C370.45 509.44 365.78 510.2 364.42 511.92C361.93 511.92 359.45 511.92 356.96 511.92C355.44 510.38 351.65 509.59 349.53 507.73C344.24 503.1 339.77 496.5 336.21 490.56C320.66 464.69 318.6 431.04 321.05 401.25C321.94 390.56 324.15 380.1 325.12 369.5C327.87 357.5 330.62 345.51 333.38 333.51C335.42 329.35 335.93 324.24 337.1 319.79C340.99 305.02 343.69 288.61 342.24 273.1C341.88 269.23 342.11 257.68 339.95 254.94C340.39 247.05 336.17 237.77 333.16 230.63C332.12 228.16 331.11 224.23 328.97 222.54C328.35 219.05 325.08 215.09 322.97 212.27C316.9 204.1 310.35 197.23 302.44 190.8C299.51 188.42 295.77 185.05 292.08 184.07C290.2 182.03 286.9 180.94 284.42 179.79C278.33 176.95 267.65 171.81 260.98 172.19C254.27 169.28 245.5 169.3 238.25 169.06C221.53 168.5 204.97 170.1 189.14 174.84C185.7 175.87 181.84 176.15 178.55 177.65C177.42 175.46 179.49 171.7 179.93 169.25C181.6 160.14 184.14 151.13 186.12 142.08C188.08 142.73 190.31 141.25 192.25 140.97C198.4 140.07 204.52 138.47 210.75 137.96C228.8 136.49 246.48 136.88 264.24 140.05C301.59 146.71 335.24 170.66 354.81 203.42C361.63 214.84 365.53 227 369.23 239.58C370.93 245.35 372.51 251.71 373.02 257.75C374.3 272.76 374.54 287.73 373 302.75C372.22 310.31 369.2 317.96 369.11 325.45Z" fill="#df646e" fill-rule="evenodd" stroke="#df646e" stroke-width="0.25" stroke-linejoin="round"/>
<path d="M92.45 92.55C99.55 99.87 106.66 107.2 113.76 114.52C105.54 122.85 97.31 131.17 89.09 139.5C86 138.09 81.64 138.83 78.25 138.47C70.09 137.61 58.65 136.77 51.5 133.08C65.15 119.57 78.8 106.06 92.45 92.55ZM216.88 217.42C224 224.62 231.13 231.81 238.25 239.01C225.36 252.1 212.47 265.18 199.58 278.26C195.45 270.88 193.05 261.87 191.24 253.56C190.64 250.84 190.55 248.02 189.75 245.35C183.88 251.07 178.01 256.78 172.14 262.5C172.17 261.98 172.21 261.46 172.25 260.94C187.13 246.43 202 231.92 216.88 217.42ZM275.27 275.49C282.38 282.72 289.49 289.94 296.6 297.16C288.38 305.61 280.17 314.05 271.95 322.5C269.05 320.73 265.19 321.35 261.92 320.76C254.11 319.37 243.93 317.82 237.28 313.44C249.94 300.79 262.61 288.14 275.27 275.49ZM396.02 396.79C403.2 403.9 410.38 411.01 417.56 418.12C404.37 431.45 391.19 444.78 378 458.1C374.7 450.22 373.36 439.9 373.05 431.25C372.96 428.66 374.05 422.01 371.86 420.55C379.92 412.63 387.97 404.71 396.02 396.79Z" fill="#f6e366" fill-rule="evenodd" stroke="#f6e366" stroke-width="0.25" stroke-linejoin="round"/>
<path d="M147.82 37.5C150.18 38.52 151.26 42.6 152.27 45.01C156.34 54.71 156.94 61.55 158 71.5C151.55 77.67 145.1 83.84 138.65 90.01C139.49 87.14 138.79 83.26 138.59 80.25C138.05 72.18 137.27 59.18 132.96 52.28C137.91 47.35 142.87 42.43 147.82 37.5ZM260.98 172.19C267.65 171.81 278.33 176.95 284.42 179.79C286.9 180.94 290.2 182.03 292.08 184.07C291.35 187.57 280.99 198.39 277.65 200.01C277.93 198.52 271.82 196.61 270.25 196C264.95 193.97 259.5 192.54 253.97 191.27C251.18 190.63 247.73 190.91 245.25 189.5C244.81 189.74 244.38 189.98 243.94 190.21C249.62 184.21 255.3 178.2 260.98 172.19ZM137.27 221.06C137.27 227.86 137.27 234.66 137.27 241.47C137.27 234.66 137.27 227.86 137.27 221.06ZM328.97 222.54C331.11 224.23 332.12 228.16 333.16 230.63C336.17 237.77 340.39 247.05 339.95 254.94C334.02 260.63 328.09 266.33 322.16 272.03C321.21 268.7 321.35 265.27 320.77 261.89C319.45 254.14 317.88 243.85 313.43 237.27C316.18 233.3 324.69 224.47 328.97 222.54ZM333.38 333.51C330.62 345.51 327.87 357.5 325.12 369.5C322.96 368.72 319.41 370.26 317.2 370.88C312.78 372.1 305.03 373.32 300.5 372.91C301.92 372.77 303.33 372.64 304.75 372.5C303.64 367.48 306.8 355.12 308.35 349.65C309.02 347.31 311.35 341.34 310.36 339.36C318.03 337.41 325.71 335.46 333.38 333.51ZM438.56 353.22C438.85 353.39 439.15 353.57 439.45 353.75C441.21 352.36 445.44 353.79 447.75 354.11C453.51 354.91 470.15 358.67 472.91 363.5C467.98 368.33 463.05 373.17 458.11 378C450.75 374.79 440.86 373.48 432.75 373.09C428.86 372.9 423.64 373.84 420.01 372.43C426.2 366.02 432.38 359.62 438.56 353.22Z" fill="#5e758b" fill-rule="evenodd" stroke="#5e758b" stroke-width="0.25" stroke-linejoin="round"/>
<path d="M51.5 133.08C58.65 136.77 70.09 137.61 78.25 138.47C81.64 138.83 86 138.09 89.09 139.5C83.03 145.7 76.97 151.89 70.91 158.09C68.07 158.74 64.97 157.67 62.18 157.18C55.46 155.99 41.61 153.02 36.85 147.96C41.73 143 46.62 138.04 51.5 133.08ZM199.58 278.26C196.02 283.74 189.3 289.09 184.08 292.9C182.94 289.66 180.69 286.67 179.26 283.52C176.27 276.9 173.48 269.66 172.14 262.5C178.01 256.78 183.88 251.07 189.75 245.35C190.55 248.02 190.64 250.84 191.24 253.56C193.05 261.87 195.45 270.88 199.58 278.26ZM237.28 313.44C243.93 317.82 254.11 319.37 261.92 320.76C265.19 321.35 269.05 320.73 271.95 322.5C266.19 328.38 260.43 334.26 254.66 340.13C247.21 339.61 227.62 333.81 222.08 328.86C227.14 323.72 232.21 318.58 237.28 313.44ZM371.86 420.55C374.05 422.01 372.96 428.66 373.05 431.25C373.36 439.9 374.7 450.22 378 458.1C372.98 463.24 367.96 468.38 362.93 473.52C360.92 471.3 359.88 467.66 358.82 464.88C355.77 456.95 352.77 447.13 353.1 438.53C359.36 432.53 365.61 426.54 371.86 420.55Z" fill="#f4d243" fill-rule="evenodd" stroke="#f4d243" stroke-width="0.25" stroke-linejoin="round"/>
</svg>